<?xml version="1.0" encoding="UTF-8"?>
<svg version="1.1" xmlns="http://www.w3.org/2000/svg" width="2524" height="996">
<path d="M0 0 C1.25695679 0.00539291 1.25695679 0.00539291 2.53930664 0.01089478 C3.41727402 0.01074875 4.29524139 0.01060272 5.19981384 0.01045227 C8.11630685 0.01115172 11.03273683 0.01894561 13.94921875 0.02676392 C15.96561142 0.02862798 17.98200454 0.03005194 19.99839783 0.03105164 C25.31671388 0.03487772 30.6350028 0.04470878 35.95330811 0.05575562 C41.37576938 0.06596779 46.79823502 0.07054884 52.22070312 0.07559204 C62.86850153 0.08633097 73.51627976 0.10340847 84.1640625 0.12442017 C81.59232051 4.69532256 78.99945471 8.81406944 75.7265625 12.93692017 C71.61508854 18.17908827 67.67053831 23.52249245 63.7890625 28.93692017 C59.65932868 34.69025836 55.48946612 40.40646803 51.2265625 46.06192017 C45.07055496 54.22921588 39.00436112 62.46097739 32.94628906 70.70108032 C30.02175504 74.67764535 27.09270817 78.65088288 24.1640625 82.62442017 C22.99737362 84.20773713 21.83070697 85.79107047 20.6640625 87.37442017 C-70.3359375 210.87442017 -70.3359375 210.87442017 -72.08618164 213.24966431 C-73.25214556 214.83210202 -74.41799854 216.41462148 -75.58374023 217.9972229 C-78.51025193 221.96993903 -81.43871284 225.94119011 -84.37109375 229.90957642 C-90.65366431 238.41631939 -96.88953649 246.95307349 -103.0625 255.53970337 C-107.25756569 261.36009933 -111.54003301 267.11080713 -115.87939453 272.82437134 C-116.78738462 274.02397753 -117.68883552 275.22857171 -118.58251953 276.43887329 C-119.79434358 278.06848631 -121.04698583 279.66749918 -122.30078125 281.26504517 C-124.13828012 283.96546031 -124.13828012 283.96546031 -123.35546875 286.61270142 C-121.53878229 289.61560474 -119.60402248 292.48876538 -117.5234375 295.31192017 C-117.08684814 295.91359009 -116.65025879 296.51526001 -116.20043945 297.13516235 C-115.25029104 298.44413015 -114.29797462 299.75152637 -113.34375 301.05752563 C-111.26711917 303.90415073 -109.20801934 306.76328912 -107.14770508 309.62173462 C-105.49746683 311.9104387 -103.84481051 314.1973774 -102.19140625 316.48379517 C-98.90438793 321.02932645 -95.61991345 325.57669061 -92.3359375 330.12442017 C-91.25261606 331.62442875 -90.16928271 333.12442875 -89.0859375 334.62442017 C-60.91927083 373.62442017 -32.75260417 412.62442017 -4.5859375 451.62442017 C-4.04888184 452.36796753 -3.51182617 453.11151489 -2.95849609 453.87759399 C-1.88303891 455.36682549 -0.8078405 456.8562439 0.26708984 458.34585571 C3.09375575 462.26224295 5.92580071 466.17459255 8.765625 470.08145142 C9.35537109 470.89420532 9.94511719 471.70695923 10.55273438 472.54434204 C11.67997934 474.09763235 12.8087952 475.6497843 13.93945312 477.20059204 C14.70418945 478.25536743 14.70418945 478.25536743 15.484375 479.33145142 C15.93055176 479.94480347 16.37672852 480.55815552 16.83642578 481.19009399 C18.383137 483.44360503 19.76568136 485.77661373 21.1640625 488.12442017 C9.95928424 488.35648486 -1.24491929 488.53398457 -12.45161438 488.64254189 C-17.65594571 488.69465517 -22.85862897 488.76529081 -28.06201172 488.8788147 C-33.0871998 488.98776022 -38.1108068 489.04732043 -43.13708496 489.0731926 C-45.05099376 489.09161989 -46.96481934 489.1276081 -48.87805176 489.18172073 C-63.8721393 489.58879845 -63.8721393 489.58879845 -68.75007629 485.9513855 C-70.79515672 483.42696887 -72.33503939 480.99713721 -73.8359375 478.12442017 C-74.65336425 476.9746573 -75.48829175 475.83693457 -76.34765625 474.71817017 C-77.06566406 473.69723267 -77.78367187 472.67629517 -78.5234375 471.62442017 C-79.37448564 470.42093127 -80.2260762 469.21782582 -81.078125 468.01504517 C-81.5225293 467.3866272 -81.96693359 466.75820923 -82.42480469 466.11074829 C-84.97811487 462.51667708 -87.5644521 458.94646796 -90.1484375 455.37442017 C-91.26043829 453.83667539 -92.37241728 452.29891484 -93.484375 450.76113892 C-94.03963867 449.99334106 -94.59490234 449.22554321 -95.16699219 448.43447876 C-96.80112049 446.17261187 -98.4323088 443.90865709 -100.0625 441.64395142 C-105.61143723 433.93911146 -111.19417624 426.26160956 -116.8359375 418.62442017 C-123.02604869 410.24493559 -129.14068059 401.81334654 -135.22705078 393.35830688 C-137.9260588 389.6108223 -140.63134036 385.86787187 -143.3359375 382.12442017 C-144.40887791 380.63876023 -145.48179453 379.15308311 -146.5546875 377.66738892 C-148.82502065 374.5237981 -151.09594098 371.38063238 -153.3671875 368.23770142 C-153.94791016 367.43397095 -154.52863281 366.63024048 -155.12695312 365.80215454 C-156.22966442 364.27600211 -157.33251849 362.74995281 -158.43554688 361.22402954 C-161.58309457 356.86743663 -164.71577781 352.50067355 -167.8359375 348.12442017 C-172.15694232 349.56475511 -173.69415749 352.87112743 -176.1484375 356.49942017 C-177.22733384 358.06188525 -178.30813584 359.62303581 -179.390625 361.18301392 C-179.95491211 361.99754028 -180.51919922 362.81206665 -181.10058594 363.65127563 C-183.92234333 367.67271661 -186.8463235 371.61683909 -189.7734375 375.56192017 C-194.3505973 381.74511198 -198.8991862 387.94676963 -203.3984375 394.18692017 C-203.92783936 394.92112183 -204.45724121 395.65532349 -205.00268555 396.41177368 C-207.17683659 399.4290913 -209.34913023 402.44774254 -211.52099609 405.46670532 C-230.36456416 431.65304682 -230.36456416 431.65304682 -232.8359375 434.12442017 C-235.54431836 434.21956608 -238.22712263 434.24996949 -240.93579102 434.23794556 C-241.78449768 434.23809158 -242.63320435 434.23823761 -243.50762939 434.23838806 C-246.32672641 434.23768865 -249.14575821 434.22989494 -251.96484375 434.22207642 C-253.91397567 434.22021234 -255.86310805 434.21878839 -257.8122406 434.2177887 C-262.95300582 434.21396272 -268.09374297 434.20413175 -273.23449707 434.19308472 C-278.47598898 434.18287231 -283.7174854 434.17829144 -288.95898438 434.17324829 C-299.25131444 434.16250956 -309.54362364 434.14543218 -319.8359375 434.12442017 C-318.55028615 430.79609132 -317.3066196 428.15422145 -315.0703125 425.36660767 C-314.51730469 424.66858032 -313.96429687 423.97055298 -313.39453125 423.25137329 C-312.79769531 422.50822876 -312.20085937 421.76508423 -311.5859375 420.99942017 C-306.54428589 414.62689779 -301.62348183 408.19000149 -296.8359375 401.62442017 C-292.26985636 395.37509111 -287.61342409 389.21364826 -282.8359375 383.12442017 C-277.3544263 376.13726112 -272.04760269 369.03822432 -266.80029297 361.87393188 C-262.38247614 355.84737928 -257.86309151 349.91365161 -253.28808594 344.00527954 C-244.29873644 332.36204677 -235.42999141 320.63367944 -226.73486328 308.76919556 C-221.87005995 302.14070662 -216.88943852 295.61013461 -211.8359375 289.12442017 C-214.404863 284.43818392 -217.13191513 280.26386208 -220.4609375 276.06192017 C-223.94525325 271.6131726 -227.324646 267.11417773 -230.5859375 262.49942017 C-234.54171125 256.90862483 -238.57620746 251.38095783 -242.6484375 245.87442017 C-247.24890063 239.65121653 -251.8153495 233.40589074 -256.3359375 227.12442017 C-260.79609177 220.92783888 -265.29842919 214.76458042 -269.8359375 208.62442017 C-274.37344708 202.48425819 -278.87565742 196.3209121 -283.3359375 190.12442017 C-287.84054854 183.86755802 -292.38369991 177.64085679 -296.9609375 171.43692017 C-297.5398877 170.65131714 -298.11883789 169.86571411 -298.71533203 169.05630493 C-301.52145273 165.25105319 -304.33559168 161.45215374 -307.1640625 157.66348267 C-307.67952637 156.96956421 -308.19499023 156.27564575 -308.72607422 155.56069946 C-309.69252413 154.25975809 -310.66271589 152.96158541 -311.63720703 151.66665649 C-314.8359375 147.35001167 -314.8359375 147.35001167 -314.8359375 145.12442017 C-303.3273323 144.70571828 -291.82056126 144.3867445 -280.3058672 144.19180107 C-274.95742555 144.09818497 -269.6142235 143.97147592 -264.26879883 143.76651001 C-259.10059297 143.56960023 -253.93739141 143.46305868 -248.76572227 143.41662979 C-246.80236657 143.38359267 -244.83925895 143.31905856 -242.87806129 143.22127914 C-227.98084737 142.5087056 -227.98084737 142.5087056 -222.78042221 146.83405304 C-218.94209765 151.07101651 -216.03916055 155.77804742 -213.24111843 160.74269295 C-210.9084335 164.69650349 -208.14769698 168.32896946 -205.3984375 171.99942017 C-200.21686094 179.15635537 -195.1396777 186.38276593 -190.08862305 193.63223267 C-185.4963288 200.21192947 -180.8217601 206.72862981 -176.09765625 213.21426392 C-175.59621094 213.90391235 -175.09476563 214.59356079 -174.578125 215.30410767 C-174.10729492 215.95089478 -173.63646484 216.59768188 -173.15136719 217.2640686 C-171.90811065 219.022349 -170.746737 220.81401999 -169.59375 222.63223267 C-168.72363281 223.86586548 -168.72363281 223.86586548 -167.8359375 225.12442017 C-167.1759375 225.12442017 -166.5159375 225.12442017 -165.8359375 225.12442017 C-164.14662626 222.86585103 -162.57496264 220.60073713 -161.0234375 218.24942017 C-160.0267146 216.76762102 -159.02793793 215.28720171 -158.02734375 213.80801392 C-157.50414551 213.03441528 -156.98094727 212.26081665 -156.44189453 211.46377563 C-153.85384375 207.69382997 -151.15694864 204.00503589 -148.4609375 200.31192017 C-143.93329001 194.09255016 -139.5302425 187.80265067 -135.2109375 181.43692017 C-130.90279596 175.09061479 -126.49256596 168.84509765 -121.92700195 162.68179321 C-116.43219547 155.25559954 -111.14446001 147.68426375 -105.8359375 140.12442017 C-99.7623573 131.4823213 -93.66249595 122.86279469 -87.4609375 114.31192017 C-82.24970526 107.12587229 -77.14318699 99.87165075 -72.0690918 92.58828735 C-68.19446947 87.03668593 -64.25662708 81.53602428 -60.2734375 76.06192017 C-55.82562193 69.94861705 -51.51248207 63.75913284 -47.2734375 57.49942017 C-42.76515321 50.84546018 -38.08403774 44.36879909 -33.21679688 37.9737854 C-29.28631332 32.78744226 -25.58728302 27.46869563 -21.93164062 22.08633423 C-18.61541036 17.21818543 -15.19829855 12.43390713 -11.7109375 7.68692017 C-11.23712646 7.04166382 -10.76331543 6.39640747 -10.27514648 5.7315979 C-6.05193975 0.01096606 -6.05193975 0.01096606 0 0 Z " fill="#703CAB" transform="translate(2061.8359375,261.8755798339844)"/>
<path d="M0 0 C29.01955184 -0.57164818 57.37686974 6.2013415 82.80859375 20.12109375 C83.71996094 20.61351562 84.63132812 21.1059375 85.5703125 21.61328125 C113.81070733 37.71167057 132.24296951 63.18526126 141.25830078 94.10986328 C147.90176442 118.39063235 144.80859375 147.31113423 144.80859375 171.12109375 C74.18859375 171.12109375 3.56859375 171.12109375 -69.19140625 171.12109375 C-61.01748661 195.64285267 -51.52053937 213.4129383 -28.06933594 225.23681641 C-7.49611204 234.92431211 15.94676436 235.62804022 37.33178711 228.28149414 C51.74632902 222.98393842 63.95821379 214.05943911 70.80859375 200.12109375 C72.12859375 197.15109375 73.44859375 194.18109375 74.80859375 191.12109375 C97.90859375 191.12109375 121.00859375 191.12109375 144.80859375 191.12109375 C140.83002864 212.34010765 135.02717229 229.90741823 120.80859375 246.12109375 C120.21820312 246.85457031 119.6278125 247.58804688 119.01953125 248.34375 C96.84854793 275.0904469 59.4965557 288.70664153 25.80859375 292.12109375 C23.11185185 292.24225245 20.43909653 292.32992995 17.7421875 292.359375 C16.62073334 292.37420174 16.62073334 292.37420174 15.47662354 292.389328 C-28.88807041 292.85455746 -68.21969272 282.12607349 -101.19140625 251.12109375 C-102.07699219 250.3321875 -102.07699219 250.3321875 -102.98046875 249.52734375 C-127.87007876 226.4071373 -139.49512988 189.51822202 -141.1015625 156.44921875 C-141.13121094 155.3509375 -141.16085937 154.25265625 -141.19140625 153.12109375 C-141.23136719 151.8990625 -141.27132813 150.67703125 -141.3125 149.41796875 C-141.99741228 108.96785534 -130.31901313 70.61775817 -102.05859375 40.99609375 C-75.21651118 13.66065772 -37.5774792 1.42582846 0 0 Z M-52.94140625 84.99609375 C-59.08935703 92.12728446 -63.13799173 99.50542711 -66.50390625 108.24609375 C-66.88615356 109.23150146 -66.88615356 109.23150146 -67.27612305 110.23681641 C-67.51242432 110.88183105 -67.74872559 111.5268457 -67.9921875 112.19140625 C-68.20012939 112.75617676 -68.40807129 113.32094727 -68.62231445 113.90283203 C-69.47865171 117.24074722 -69.7639812 120.70169335 -70.19140625 124.12109375 C-22.34140625 124.12109375 25.50859375 124.12109375 74.80859375 124.12109375 C73.20042437 104.82306123 67.0222486 90.29653098 52.41015625 77.45800781 C21.4596181 51.62185737 -25.91028219 56.25584704 -52.94140625 84.99609375 Z " fill="#FFFFFF" transform="translate(1598.19140625,404.87890625)"/>
<path d="M0 0 C22.11 0 44.22 0 67 0 C67.01458252 4.81843506 67.02916504 9.63687012 67.04418945 14.60131836 C67.09463926 30.56285087 67.16110499 46.52428746 67.23571491 62.48572445 C67.28054104 72.1583592 67.31998555 81.83095821 67.34643555 91.50366211 C67.36952298 99.94156211 67.40303934 108.37934775 67.44870156 116.81715685 C67.47248995 121.27840455 67.49131236 125.73954002 67.49761391 130.20084953 C67.50373065 134.41407605 67.52396286 138.62701592 67.55427551 142.84013557 C67.5629516 144.37296673 67.56680046 145.90583552 67.56500816 147.43869019 C67.54776703 169.01980163 71.10686537 190.75982145 86.09375 207.3125 C95.87697821 216.67037046 109.51926503 222.19699593 123 223 C123.85851562 223.05285156 124.71703125 223.10570312 125.6015625 223.16015625 C142.75198947 223.69177326 159.64911595 219.22730188 172.5 207.4375 C184.71329776 193.9905358 190.0626554 175.81906649 190.15821838 157.8941803 C190.16315636 157.21441318 190.16809434 156.53464607 190.17318195 155.83427995 C190.18843628 153.57580153 190.1968845 151.31735126 190.20532227 149.05883789 C190.2149103 147.43220781 190.22492092 145.80558017 190.23532104 144.17895508 C190.26227592 139.77663312 190.28333627 135.37430055 190.30332303 130.97194219 C190.3252409 126.36615789 190.35260113 121.76040597 190.37937927 117.15464783 C190.4292279 108.43902914 190.47419568 99.7233924 190.51740164 91.00773853 C190.56684106 81.08271343 190.62173426 71.15772082 190.67708123 61.23272717 C190.79078103 40.82184698 190.89692618 20.41093681 191 0 C213.11 0 235.22 0 258 0 C258.06799222 21.13337528 258.12314091 42.26666058 258.15543652 63.40011787 C258.17083739 73.21502757 258.1917955 83.02986396 258.22631836 92.84472656 C258.25643019 101.4096901 258.27562411 109.9746005 258.28226548 118.53961551 C258.28614126 123.06534787 258.29510427 127.59092832 258.31719017 132.11661148 C258.53007266 177.55193911 253.1867396 218.23718474 220.6875 252.625 C194.52968855 277.76289678 158.48463916 286.85127928 123.109375 286.25 C90.60586761 285.22335732 60.24059667 273.99669236 37 251 C36.27425781 250.33484375 35.54851563 249.6696875 34.80078125 248.984375 C10.3028397 226.07470864 1.67450165 190.21621294 0 158 C-0.31943067 146.62497902 -0.24150773 135.24285453 -0.20278788 123.86453676 C-0.19010547 119.4950961 -0.18909646 115.1256513 -0.18673706 110.75619507 C-0.18057288 102.51914769 -0.16423221 94.28215473 -0.14403808 86.04513109 C-0.12151944 76.65182062 -0.11064592 67.25850727 -0.10064721 57.86517644 C-0.07986018 38.57674736 -0.04324901 19.28839269 0 0 Z " fill="#FFFFFF" transform="translate(516,411)"/>
<path d="M0 0 C21.78 0 43.56 0 66 0 C66.029729 7.00045532 66.029729 7.00045532 66.06005859 14.14233398 C66.12712583 29.60492588 66.20466614 45.06745237 66.28752708 60.52996731 C66.33748584 69.89992608 66.38392954 79.26987682 66.421875 88.63989258 C66.45498692 96.81408164 66.49492153 104.9882052 66.54279006 113.16232163 C66.56786583 117.48382077 66.58970105 121.80527754 66.60334396 126.12682915 C66.61633852 130.20867662 66.63857263 134.2903773 66.66738319 138.37214279 C66.67632518 139.85660128 66.68211711 141.34108331 66.68421364 142.82556725 C66.71940444 163.99084324 68.87634119 184.05472414 81 202 C81.39832031 202.60199219 81.79664063 203.20398438 82.20703125 203.82421875 C90.46623958 214.94350629 105.18738072 220.18842588 118.2421875 222.49609375 C134.72285727 224.70607961 151.77467288 221.80460627 165.625 212.375 C180.52382932 200.96447204 186.76692309 184.02324131 189.28591824 165.94841957 C190.15983292 158.09668738 190.17428229 150.25025031 190.20532227 142.36083984 C190.21491903 140.80273184 190.22493012 139.24462635 190.23532104 137.68652344 C190.26218154 133.48478642 190.28329226 129.2830384 190.30332303 125.08126402 C190.32529995 120.67969513 190.35263097 116.27815945 190.37937927 111.87661743 C190.4291488 103.55421639 190.47414554 95.23179675 190.51740164 86.90935957 C190.56690916 77.42923773 190.62177686 67.94914923 190.67708123 58.46905971 C190.79065942 38.97940281 190.89684296 19.48971503 191 0 C212.78 0 234.56 0 257 0 C257.06794941 21.68945185 257.12311636 43.37881634 257.15543652 65.06834793 C257.17084802 75.14114466 257.191827 85.21387013 257.22631836 95.28662109 C257.25639706 104.07496816 257.27561644 112.86326357 257.28226548 121.65166068 C257.28614674 126.29693489 257.29514613 130.94206144 257.31719017 135.5872879 C257.50776922 177.40964131 253.31766508 217.75751861 222.77734375 249.22265625 C197.16491925 274.83508075 164.39589811 286.13162871 128.5 286.375 C117.47128017 286.30850615 106.79833357 285.22389116 96 283 C95.32291992 282.86078125 94.64583984 282.7215625 93.94824219 282.578125 C72.7799547 278.01262316 53.87895527 267.50564022 38 253 C37.27296875 252.35546875 36.5459375 251.7109375 35.796875 251.046875 C20.88536006 237.10521469 11.55076139 218.20433136 5.5625 198.9375 C5.22835083 197.88042847 5.22835083 197.88042847 4.88745117 196.80200195 C-1.10307385 175.88479687 -0.40632948 154.37115063 -0.30418181 132.84610462 C-0.28521068 128.16302126 -0.2836487 123.47992983 -0.28010559 118.79681396 C-0.27084435 109.96114176 -0.24631228 101.12558318 -0.21605712 92.28996062 C-0.18232681 82.21715318 -0.16598064 72.14433982 -0.15097082 62.07148981 C-0.11975621 41.38091604 -0.06481985 20.69049767 0 0 Z " fill="#FFFFFF" transform="translate(1007,411)"/>
<path d="M0 0 C4.53087507 0.01224168 9.06176435 0.01665653 13.59265137 0.02245331 C20.40566813 0.03201104 27.21859464 0.05122508 34.03161621 0.06866455 C34.03161621 20.19866455 34.03161621 40.32866455 34.03161621 61.06866455 C26.62595215 61.12473877 26.62595215 61.12473877 19.07067871 61.1819458 C15.92611385 61.21225394 12.78160365 61.24342027 9.63708496 61.27764893 C4.65583187 61.33178994 -0.3253131 61.38290622 -5.3067627 61.4151001 C-9.32699746 61.44128192 -13.34686512 61.4817869 -17.36687088 61.53185081 C-18.89365669 61.54841968 -20.42050584 61.55999566 -21.94736862 61.56627846 C-31.54383009 61.60972787 -40.19597063 62.05697073 -48.84338379 66.56866455 C-59.80159688 79.46067995 -56.46831742 104.06680624 -56.96838379 118.06866455 C-29.57838379 118.06866455 -2.18838379 118.06866455 26.03161621 118.06866455 C26.03161621 137.53866455 26.03161621 157.00866455 26.03161621 177.06866455 C-1.35838379 177.06866455 -28.74838379 177.06866455 -56.96838379 177.06866455 C-56.96838379 250.32866455 -56.96838379 323.58866455 -56.96838379 399.06866455 C-78.74838379 399.06866455 -100.52838379 399.06866455 -122.96838379 399.06866455 C-122.96838379 325.80866455 -122.96838379 252.54866455 -122.96838379 177.06866455 C-136.16838379 177.06866455 -149.36838379 177.06866455 -162.96838379 177.06866455 C-162.96838379 157.59866455 -162.96838379 138.12866455 -162.96838379 118.06866455 C-149.76838379 118.06866455 -136.56838379 118.06866455 -122.96838379 118.06866455 C-123.00318848 114.67971924 -123.03799316 111.29077393 -123.07385254 107.7991333 C-123.09737181 104.44945108 -123.11551763 101.0997787 -123.13317871 97.75006104 C-123.14809465 95.45477049 -123.1684346 93.15950755 -123.19470215 90.86431885 C-123.46398101 66.69786076 -122.99512825 39.5302544 -105.71838379 20.6038208 C-93.88700076 9.20853042 -78.79401333 4.75960946 -62.90588379 2.38116455 C-62.12285889 2.26168457 -61.33983398 2.14220459 -60.53308105 2.019104 C-40.52703044 -0.70639229 -20.14279265 -0.06034683 0 0 Z " fill="#FFFFFF" transform="translate(473.9683837890625,292.93133544921875)"/>
<path d="M0 0 C0 28.05 0 56.1 0 85 C26.4 85 52.8 85 80 85 C80 104.47 80 123.94 80 144 C53.6 144 27.2 144 0 144 C0.09059908 169.90730794 0.09059908 169.90730794 0.20898438 195.81445312 C0.26344228 206.38157572 0.31485652 216.94865009 0.34643555 227.51586914 C0.36945001 235.21244168 0.40288645 242.90888732 0.44870156 250.60535914 C0.47258739 254.67846802 0.4913465 258.75145157 0.49761391 262.82462883 C0.50368586 266.66357191 0.52376123 270.50219451 0.55427551 274.34101868 C0.56302208 275.74497815 0.56678537 277.14897957 0.56500816 278.55296516 C0.29515867 290.86566773 0.29515867 290.86566773 5.43581104 301.66595364 C12.56494283 307.74616044 25.96826521 306.1998953 34.6875 306.31640625 C36.41516602 306.34438293 36.41516602 306.34438293 38.17773438 306.3729248 C42.45175004 306.4408668 46.72588331 306.50124163 51 306.5625 C60.57 306.706875 70.14 306.85125 80 307 C80 326.47 80 345.94 80 366 C63.29245264 366.08021762 63.29245264 366.08021762 56.04492188 366.09765625 C51.143428 366.10950686 46.24201041 366.12336017 41.34057617 366.15087891 C-26.85594029 366.52327329 -26.85594029 366.52327329 -49.0390625 346.125 C-64.44049479 329.84154736 -66.3381923 305.32261638 -66.22705078 284.09033203 C-66.22648501 282.55134081 -66.22680646 281.01234906 -66.22793579 279.47335815 C-66.22850383 275.34203885 -66.21683972 271.21083841 -66.20278788 267.07954645 C-66.19018775 262.74475888 -66.18910277 258.40996785 -66.18673706 254.07516479 C-66.18054933 245.88743344 -66.1641756 237.69975624 -66.14403808 229.5120486 C-66.12159424 220.18180027 -66.11066442 210.85154919 -66.10064721 201.52128053 C-66.07980662 182.34748353 -66.0431647 163.17376064 -66 144 C-80.19 144 -94.38 144 -109 144 C-109 124.53 -109 105.06 -109 85 C-94.81 85 -80.62 85 -66 85 C-66.43299207 74.58681743 -66.43299207 74.58681743 -66.9909668 64.18017578 C-67.21091284 53.65243563 -67.21091284 53.65243563 -63.69799805 48.85864258 C-60.91500179 46.31564481 -58.09418257 44.14826446 -55 42 C-53.13606664 40.4911526 -51.28049482 38.97185268 -49.4375 37.4375 C-48.52871094 36.70402344 -47.61992188 35.97054687 -46.68359375 35.21484375 C-44.05291443 33.04367173 -41.52057576 30.79758643 -39 28.5 C-35.60401318 25.40444804 -32.13828469 22.44848793 -28.5625 19.5625 C-24.65716102 16.40393264 -20.89390431 13.14000394 -17.1875 9.75 C-16.28 8.92242187 -15.3725 8.09484375 -14.4375 7.2421875 C-13.0083261 5.92753073 -11.58749625 4.60349855 -10.1875 3.2578125 C-6.3739514 -0.25780262 -5.76670214 0 0 0 Z " fill="#FFFFFF" transform="translate(902,326)"/>
<path d="M0 0 C7.87268715 0 7.87268715 0 10.5078125 2.45703125 C11.09506104 2.9869165 11.68230957 3.51680176 12.28735352 4.06274414 C12.89377686 4.64016357 13.5002002 5.21758301 14.125 5.8125 C15.44845673 7.01646318 16.7726887 8.21957468 18.09765625 9.421875 C18.7539502 10.02708984 19.41024414 10.63230469 20.08642578 11.25585938 C22.84610327 13.77118675 25.69665798 16.16972971 28.5625 18.5625 C31.98693806 21.43584244 35.38784752 24.33061231 38.74609375 27.28125 C39.37249756 27.82837646 39.99890137 28.37550293 40.64428711 28.93920898 C41.84912668 29.9931464 43.04945091 31.05227646 44.24438477 32.11743164 C47.33840963 34.81510133 50.06816266 36.76029756 54 38 C54.53367187 37.29875 55.06734375 36.5975 55.6171875 35.875 C69.58988503 18.08277616 89.14125137 7.65205404 111.44921875 4.30078125 C112.29097656 4.20152344 113.13273437 4.10226562 114 4 C114.91394531 3.89042969 115.82789063 3.78085937 116.76953125 3.66796875 C129.51604229 2.38819857 146.69514639 0.89838213 159 5 C159 25.79 159 46.58 159 68 C150.09 68 141.18 68 132 68 C114.08947744 69.46438235 94.65187405 71.67444754 82 86 C68.92143794 104.03624954 67.88169154 125.90001884 67.79467773 147.38549805 C67.78507756 148.90434523 67.7750663 150.42318986 67.76467896 151.94203186 C67.73785525 156.03214264 67.71672503 160.1222647 67.69667697 164.21241355 C67.67467688 168.49919882 67.64735738 172.78595025 67.62062073 177.07270813 C67.5708821 185.17549652 67.52587413 193.27830388 67.48259836 201.38112909 C67.42378757 212.34093896 67.35760293 223.3007042 67.29184818 234.26047421 C67.18856839 251.50695264 67.09508351 268.75346991 67 286 C44.89 286 22.78 286 0 286 C0 191.62 0 97.24 0 0 Z " fill="#FFFFFF" transform="translate(1300,406)"/>
</svg>
